<svg width="353" height="156" viewBox="0 0 353 156" fill="none" xmlns="http://www.w3.org/2000/svg">
<g clip-path="url(#clip0_48_1624)">
<path fill-rule="evenodd" clip-rule="evenodd" d="M247.01 2.62C263.94 2.62 277.66 16.34 277.66 33.27C277.66 50.2 263.94 63.9 247.01 63.9C230.08 63.9 216.38 50.18 216.38 33.27C216.38 16.36 230.1 2.62 247.01 2.62ZM247.01 9.02C260.4 9.02 271.27 19.88 271.27 33.28C271.27 46.68 260.41 57.51 247.01 57.51C233.61 57.51 222.78 46.65 222.78 33.28C222.78 19.91 233.64 9.02 247.01 9.02ZM239.39 61.4C227.01 58.04 217.87 46.73 217.87 33.27C217.87 27.5 219.57 22.11 222.45 17.59V24.05C221.38 26.94 220.78 30.03 220.78 33.28C220.78 45.93 229.77 56.49 241.7 58.96L239.38 61.4H239.39ZM247.01 11.85C258.86 11.85 268.44 21.43 268.44 33.28C268.44 45.13 258.86 54.68 247.01 54.68C235.16 54.68 225.61 45.1 225.61 33.28C225.61 21.46 235.19 11.85 247.01 11.85ZM247.01 13.57C257.9 13.57 266.74 22.38 266.74 33.27C266.74 44.16 257.9 52.97 247.01 52.97C236.12 52.97 227.31 44.13 227.31 33.27C227.31 22.41 236.15 13.57 247.01 13.57ZM247.01 4.14C262.13 4.14 274.54 15.6 276.03 30.33H273.08C271.62 17.23 260.52 7.03 247.01 7.03H246.89V4.14H247.01Z" fill="#00A3D3"/>
<path fill-rule="evenodd" clip-rule="evenodd" d="M221.5 -9.76585e-06H223.17V62.74H221.5V1.42999H209.89L202.12 8.38999V6.59999L209.23 -0.0100098H221.49L221.5 -9.76585e-06ZM218.32 5.08999V62.74H216.77V32.68H213.35V62.74H211.8V11.79L202.78 19.92V12.15L210.34 5.09999H218.32V5.08999Z" fill="#00A3D3"/>
<path fill-rule="evenodd" clip-rule="evenodd" d="M239.45 61.49C226.98 58.13 217.84 46.76 217.84 33.22C217.84 27.45 219.51 22.03 222.42 17.48V24C221.35 26.86 220.75 29.98 220.75 33.23C220.75 45.97 229.77 56.59 241.76 59.06L239.44 61.5L239.45 61.49Z" fill="black"/>
<path d="M56.8101 111.05C51.0001 111.05 46.2101 106.33 46.2101 100.52C46.2101 94.7099 51.0001 89.9899 56.8101 89.9899C62.6201 89.9899 67.4101 94.7099 67.4101 100.52C67.4101 106.33 62.6901 111.05 56.8101 111.05ZM56.8101 78.4299C44.5501 78.4299 34.6001 88.3199 34.6001 100.52C34.6001 112.72 44.5601 122.61 56.8101 122.61C69.0601 122.61 79.0901 112.72 79.0901 100.52C79.0901 88.3199 69.1301 78.4299 56.8101 78.4299Z" fill="#F7B01A"/>
<path d="M34.9799 54.81C39.1899 54.81 41.7499 53.28 41.7499 50.02V49.89C41.7499 47.02 39.5799 45.17 34.6599 45.17H23.5499V54.81H34.9799ZM32.4299 37.19C36.6399 37.19 39.3199 35.85 39.3199 32.59V32.46C39.3199 29.59 37.0899 27.99 32.9999 27.99H23.5499V37.18H32.4199L32.4299 37.19ZM14.1699 19.58H34.4699C39.4499 19.58 43.3399 20.92 45.8999 23.41C47.8799 25.45 48.8399 27.88 48.8399 30.88V31.01C48.8399 35.92 46.2199 38.67 43.1599 40.39C48.1999 42.3 51.3299 45.24 51.3299 51.11V51.24C51.3299 59.22 44.8199 63.18 34.9899 63.18H14.1699V19.58Z" fill="#00A3D3"/>
<path d="M77.7399 43.9C77.1699 39.62 74.6799 36.75 70.6499 36.75C66.6199 36.75 64.1999 39.56 63.4399 43.9H77.7399ZM54.1899 46.7V46.57C54.1899 37 60.9599 29.14 70.6599 29.14C81.8299 29.14 86.9399 37.82 86.9399 47.27C86.9399 48.04 86.8799 48.93 86.8099 49.76H63.5799C64.5399 54.1 67.5399 56.33 71.7499 56.33C74.9399 56.33 77.2399 55.31 79.8599 52.88L85.2899 57.67C82.1599 61.56 77.6899 63.93 71.6299 63.93C61.6099 63.93 54.1999 56.91 54.1999 46.7H54.1899Z" fill="#00A3D3"/>
<path d="M90.2601 48.36V24.93H84.3901V12.93H90.2601V0.359985H104.3V12.93H115.92V24.93H104.3V46.06C104.3 49.25 105.64 50.85 108.77 50.85C111.39 50.85 113.68 50.21 115.73 49.13L118.73 59.73C115.79 61.52 109.35 63.18 104.62 63.18C96.0701 63.18 90.2601 59.8 90.2601 48.37V48.36Z" fill="#00A3D3"/>
<path d="M115.02 48.3V24.8701H109.15V12.87H115.02V0.300049H129.06V12.87H140.68V24.8701H129.06V46C129.06 49.19 130.4 50.7901 133.59 50.7901C136.14 50.7901 138.44 50.15 140.48 49.07V60.3C137.54 62.02 134.1 63.1101 129.44 63.1101C120.82 63.1101 115.01 59.73 115.01 48.3H115.02Z" fill="#00A3D3"/>
<path d="M183.57 29.7899H193.08V36.4899C194.99 31.8899 198.12 28.8899 203.74 29.1499V39.1099H203.23C196.91 39.1099 193.08 42.8799 193.08 50.8499V63.1699H183.57V29.7899Z" fill="#00A3D3"/>
<path d="M15.19 81.24H0V73.45H38.81V81.24H23.68V121.32H15.19V81.24Z" fill="#00A3D3"/>
<path d="M111.19 101.47V101.34C111.19 95.47 106.34 91.45 100.59 91.45C94.8398 91.45 90.3798 95.41 90.3798 101.34V101.47C90.3798 107.34 94.9098 111.43 100.59 111.43C106.27 111.43 111.19 107.34 111.19 101.47ZM83.8098 128.09L86.8698 121.83C90.7598 124.26 94.7798 125.66 99.6998 125.66C107.1 125.66 111.13 121.83 111.13 114.62V111.81C108.13 115.7 104.36 118.45 98.4298 118.45C89.9398 118.45 82.0298 112.13 82.0298 101.54V101.41C82.0298 90.75 90.0098 84.5 98.4298 84.5C104.49 84.5 108.26 87.31 111.07 90.63V85.27H119.37V113.93C119.37 120.06 117.77 124.53 114.77 127.53C111.45 130.85 106.41 132.38 99.8998 132.38C93.9598 132.38 88.4698 130.91 83.8098 128.1V128.09Z" fill="#00A3D3"/>
<path d="M154.47 100.77C153.9 95.41 150.77 91.26 145.28 91.26C140.24 91.26 136.73 95.15 135.96 100.77H154.47ZM127.72 103.39V103.26C127.72 92.98 135.06 84.49 145.4 84.49C156.83 84.49 162.63 93.49 162.63 103.89C162.63 104.66 162.57 105.36 162.5 106.19H136.01C136.9 112.06 141.05 115.38 146.41 115.38C150.43 115.38 153.3 113.85 156.18 111.04L161.03 115.38C157.58 119.47 152.86 122.15 146.22 122.15C135.82 122.15 127.71 114.55 127.71 103.38L127.72 103.39Z" fill="#00A3D3"/>
<path d="M171.13 111.36V92.34H166.6V85.25H171.13V75.29H179.43V85.25H189.13V92.34H179.43V110.02C179.43 113.28 181.09 114.55 183.83 114.55C185.68 114.55 187.34 114.1 189 113.34V120.11C186.96 121.26 184.66 121.9 181.53 121.9C175.47 121.9 171.13 119.28 171.13 111.37V111.36Z" fill="#00A3D3"/>
<path d="M194.87 71.41H203.17V90.75C205.47 87.43 208.85 84.49 214.4 84.49C222.57 84.49 227.29 89.92 227.29 98.28V121.32H218.99V100.83C218.99 95.21 216.18 92.02 211.27 92.02C206.36 92.02 203.16 95.34 203.16 100.96V121.32H194.86V71.41H194.87Z" fill="#00A3D3"/>
<path d="M258.19 100.77C257.68 95.41 254.49 91.26 249.06 91.26C244.02 91.26 240.44 95.15 239.68 100.77H258.19ZM231.51 103.39V103.26C231.51 92.98 238.79 84.49 249.13 84.49C260.62 84.49 266.43 93.49 266.43 103.89C266.43 104.66 266.37 105.36 266.3 106.19H239.75C240.64 112.06 244.79 115.38 250.15 115.38C254.17 115.38 257.04 113.85 259.92 111.04L264.77 115.38C261.32 119.47 256.66 122.15 250.03 122.15C239.56 122.15 231.52 114.55 231.52 103.38L231.51 103.39Z" fill="#00A3D3"/>
<path d="M273.45 85.26H281.75V93.37C283.98 87.94 288.13 84.31 294.52 84.56V93.3H294.07C286.79 93.3 281.75 98.02 281.75 107.6V121.32H273.45V85.26Z" fill="#00A3D3"/>
<path d="M167.36 43.9C166.79 39.62 164.3 36.75 160.27 36.75C156.24 36.75 153.82 39.56 153.06 43.9H167.36ZM143.74 46.7V46.57C143.74 37 150.57 29.14 160.27 29.14C171.44 29.14 176.55 37.82 176.55 47.27C176.55 48.04 176.49 48.93 176.42 49.76H153.19C154.08 54.1 157.08 56.33 161.36 56.33C164.55 56.33 166.85 55.31 169.47 52.88L174.9 57.67C171.77 61.56 167.3 63.93 161.24 63.93C151.22 63.93 143.75 56.91 143.75 46.7H143.74Z" fill="#00A3D3"/>
<path d="M236.65 39.36C236.31 39.67 235.78 39.67 235.44 39.33C235.13 38.99 235.13 38.46 235.47 38.12L243.6 30.36L247.28 33.51L255.83 25.13C256.17 24.79 256.7 24.79 257.01 25.13C257.35 25.47 257.35 26 257.01 26.34L247.36 35.79L243.65 32.64L236.65 39.36Z" fill="#F7B01A"/>
<path d="M238.28 44.7C237.94 45.04 237.41 45.04 237.07 44.7C236.76 44.36 236.76 43.83 237.1 43.49L243.46 37.33C243.8 37.02 244.33 37.02 244.67 37.36C244.98 37.7 244.98 38.23 244.64 38.57L238.28 44.7Z" fill="#F7B01A"/>
<path d="M249.67 37.7199C249.98 37.3799 250.54 37.3799 250.85 37.6899C251.19 38.0299 251.19 38.5599 250.88 38.8999L244.97 44.8599C244.63 45.1999 244.1 45.1999 243.76 44.8599C243.45 44.5499 243.42 44.0199 243.76 43.6799L249.67 37.7199Z" fill="#F7B01A"/>
<path d="M254.02 23.9C253.56 23.94 253.13 23.6 253.06 23.15C253.02 22.66 253.35 22.23 253.81 22.19L260.1 21.37L260.55 27.75C260.59 28.24 260.22 28.65 259.74 28.69C259.28 28.73 258.87 28.36 258.83 27.87L258.51 23.3L254.02 23.9Z" fill="#F7B01A"/>
<path d="M131.81 133.64V149.53H128.81V133.64H123.96V131.09H136.66V133.64H131.81ZM137.94 149.53V130H140.56V139.51C141.07 138.68 141.71 138.11 142.47 137.72C143.17 137.34 144.07 137.15 145.15 137.15C146.04 137.15 146.81 137.28 147.45 137.6C148.02 137.86 148.54 138.3 148.92 138.81C149.11 139.19 149.24 139.58 149.37 139.96C149.43 140.41 149.5 141.17 149.5 142.26V149.54H146.76V143.41C146.76 141.81 146.57 140.79 146.19 140.28C145.81 139.77 145.1 139.51 144.15 139.51C143.51 139.51 142.94 139.57 142.43 139.83C141.92 140.09 141.54 140.4 141.28 140.85C141.09 141.11 140.9 141.49 140.83 141.94C140.77 142.39 140.7 143.09 140.7 144.05V149.54H137.96L137.94 149.53ZM163.85 143.92H154.28C154.34 145.07 154.66 145.96 155.3 146.54C155.87 147.18 156.7 147.5 157.66 147.5C158.55 147.5 159.26 147.31 159.89 146.93C160.46 146.61 160.98 145.97 161.42 145.14L163.72 146.42C163.02 147.63 162.19 148.53 161.17 149.1C160.21 149.74 159.06 149.99 157.72 149.99C155.81 149.99 154.27 149.42 153.12 148.27C152.03 147.12 151.46 145.53 151.46 143.61C151.46 141.69 152.03 140.16 153.18 139.01C154.39 137.8 155.86 137.16 157.71 137.16C159.56 137.16 161.09 137.73 162.18 138.82C163.27 139.91 163.84 141.44 163.84 143.42V143.93L163.85 143.92ZM160.98 142.13C160.85 141.24 160.53 140.6 160.02 140.15C159.45 139.7 158.74 139.51 157.79 139.51C156.9 139.51 156.13 139.7 155.62 140.15C155.05 140.6 154.66 141.24 154.47 142.13H160.98Z" fill="#00A3D3"/>
<path d="M174.06 146.79H176.55C177.95 146.79 178.98 146.73 179.68 146.53C180.38 146.33 180.96 146.02 181.47 145.57C182.17 145 182.68 144.23 183.07 143.34C183.39 142.51 183.58 141.43 183.58 140.28C183.58 139.13 183.39 138.11 183.07 137.22C182.69 136.33 182.18 135.56 181.47 134.99C180.96 134.54 180.32 134.22 179.62 134.03C178.92 133.84 177.77 133.77 176.24 133.77H174.07V146.79H174.06ZM171.06 149.53V131.08H175.08C177.7 131.08 179.55 131.21 180.63 131.46C181.72 131.72 182.61 132.16 183.44 132.8C184.53 133.63 185.29 134.65 185.87 135.93C186.44 137.21 186.7 138.67 186.7 140.33C186.7 141.99 186.44 143.39 185.87 144.67C185.3 145.88 184.53 146.97 183.44 147.8C182.61 148.37 181.72 148.82 180.7 149.08C179.68 149.4 178.08 149.53 175.91 149.53H171.06Z" fill="#00A3D3"/>
<path d="M200.62 143.92H191.05C191.18 145.07 191.5 145.96 192.07 146.54C192.64 147.18 193.47 147.5 194.43 147.5C195.32 147.5 196.09 147.31 196.66 146.93C197.23 146.61 197.75 145.97 198.19 145.14L200.49 146.42C199.79 147.63 198.96 148.53 198 149.1C196.98 149.74 195.83 149.99 194.49 149.99C192.58 149.99 191.04 149.42 189.96 148.27C188.81 147.12 188.24 145.53 188.24 143.61C188.24 141.69 188.81 140.16 190.03 139.01C191.18 137.8 192.65 137.16 194.5 137.16C196.35 137.16 197.95 137.73 199.03 138.82C200.05 139.91 200.63 141.44 200.63 143.42V143.93L200.62 143.92ZM197.74 142.13C197.68 141.24 197.36 140.6 196.78 140.15C196.21 139.7 195.5 139.51 194.55 139.51C193.66 139.51 192.95 139.7 192.38 140.15C191.87 140.6 191.49 141.24 191.23 142.13H197.74Z" fill="#00A3D3"/>
<path d="M203.04 149.53V139.96H200.93V137.6H203.04V134.41C203.04 132.81 203.36 131.67 204.06 130.9C204.7 130.13 205.72 129.75 207.12 129.75C207.38 129.75 207.69 129.75 208.01 129.81C208.33 129.87 208.65 129.94 208.97 130V132.49C208.71 132.36 208.52 132.23 208.27 132.17C208.08 132.11 207.82 132.11 207.63 132.11C206.93 132.11 206.48 132.3 206.23 132.68C205.91 133.13 205.78 133.77 205.78 134.72V137.59H208.65V139.95H205.78V149.52H203.04V149.53Z" fill="#00A3D3"/>
<path d="M212.74 137.6H210V149.54H212.74V137.6Z" fill="#00A3D3"/>
<path d="M209.68 132.43C209.68 131.98 209.87 131.6 210.19 131.22C210.51 130.9 210.89 130.71 211.4 130.71C211.85 130.71 212.29 130.9 212.61 131.22C212.93 131.54 213.12 131.92 213.12 132.43C213.12 132.94 212.93 133.32 212.61 133.64C212.29 133.96 211.84 134.15 211.4 134.15C210.89 134.15 210.51 133.96 210.19 133.64C209.87 133.32 209.68 132.87 209.68 132.43Z" fill="#F7B01A"/>
<path d="M216.38 149.53V137.59H218.93V139.5C219.44 138.67 220.14 138.1 220.84 137.71C221.61 137.33 222.5 137.14 223.52 137.14C224.41 137.14 225.18 137.27 225.82 137.59C226.46 137.85 226.91 138.29 227.29 138.8C227.48 139.18 227.67 139.57 227.74 139.95C227.8 140.4 227.87 141.16 227.87 142.25V149.53H225.13V143.4C225.13 141.8 224.94 140.78 224.56 140.27C224.18 139.76 223.47 139.5 222.52 139.5C221.88 139.5 221.31 139.56 220.8 139.82C220.35 140.08 219.91 140.39 219.65 140.84C219.46 141.1 219.33 141.48 219.2 141.93C219.14 142.38 219.14 143.08 219.14 144.04V149.53H216.4H216.38Z" fill="#00A3D3"/>
<path d="M233.61 137.6H230.87V149.54H233.61V137.6Z" fill="#00A3D3"/>
<path d="M230.49 132.43C230.49 131.98 230.68 131.6 231 131.22C231.32 130.9 231.77 130.71 232.21 130.71C232.72 130.71 233.1 130.9 233.42 131.22C233.74 131.54 233.93 131.92 233.93 132.43C233.93 132.94 233.74 133.32 233.42 133.64C233.1 133.96 232.72 134.15 232.21 134.15C231.76 134.15 231.32 133.96 231 133.64C230.68 133.32 230.49 132.87 230.49 132.43Z" fill="#F7B01A"/>
<path d="M236.68 149.53V137.59H239.3V139.5C239.81 138.67 240.45 138.1 241.21 137.71C241.91 137.33 242.81 137.14 243.89 137.14C244.78 137.14 245.55 137.27 246.19 137.59C246.76 137.85 247.28 138.29 247.66 138.8C247.85 139.18 247.98 139.57 248.11 139.95C248.17 140.4 248.24 141.16 248.24 142.25V149.53H245.5V143.4C245.5 141.8 245.31 140.78 244.93 140.27C244.55 139.76 243.84 139.5 242.89 139.5C242.25 139.5 241.68 139.56 241.17 139.82C240.66 140.08 240.28 140.39 240.02 140.84C239.83 141.1 239.64 141.48 239.57 141.93C239.51 142.38 239.44 143.08 239.44 144.04V149.53H236.7H236.68Z" fill="#00A3D3"/>
<path d="M259.66 143.53C259.66 142.25 259.34 141.3 258.77 140.59C258.2 139.95 257.43 139.57 256.41 139.57C255.32 139.57 254.56 139.95 253.98 140.66C253.34 141.36 253.09 142.32 253.09 143.6C253.09 144.88 253.35 145.83 253.92 146.54C254.49 147.25 255.32 147.56 256.35 147.56C257.31 147.56 258.14 147.18 258.71 146.47C259.35 145.7 259.67 144.75 259.67 143.53H259.66ZM262.34 148.77C262.34 151.13 261.83 152.73 260.94 153.68C259.98 154.64 258.39 155.15 256.22 155.15C254.56 155.15 253.22 154.77 252.26 154.06C251.3 153.36 250.79 152.46 250.79 151.32H253.73C253.73 151.83 253.99 152.21 254.43 152.47C254.88 152.73 255.45 152.85 256.28 152.85C257.43 152.85 258.26 152.59 258.77 152.08C259.28 151.57 259.54 150.74 259.54 149.53L259.6 147.93C259.09 148.63 258.51 149.14 257.88 149.46C257.24 149.84 256.48 149.97 255.65 149.97C253.99 149.97 252.65 149.4 251.69 148.25C250.67 147.1 250.22 145.51 250.22 143.53C250.22 141.55 250.73 140.08 251.69 138.93C252.71 137.72 253.99 137.14 255.58 137.14C256.54 137.14 257.37 137.33 258.07 137.78C258.77 138.16 259.28 138.74 259.6 139.5V137.59H262.34V148.76V148.77Z" fill="#00A3D3"/>
<path d="M272.74 146.79H275.29C276.63 146.79 277.72 146.73 278.42 146.53C279.06 146.34 279.7 146.02 280.21 145.57C280.91 145 281.42 144.23 281.74 143.34C282.12 142.51 282.31 141.43 282.31 140.28C282.31 139.13 282.12 138.11 281.74 137.22C281.42 136.33 280.91 135.56 280.21 134.99C279.7 134.54 279.06 134.22 278.36 134.03C277.59 133.84 276.45 133.77 274.91 133.77H272.74V146.79ZM269.81 149.53V131.08H273.83C276.45 131.08 278.3 131.21 279.38 131.46C280.4 131.72 281.36 132.16 282.19 132.8C283.21 133.63 284.04 134.65 284.62 135.93C285.13 137.21 285.45 138.67 285.45 140.33C285.45 141.99 285.13 143.39 284.62 144.67C284.05 145.88 283.22 146.97 282.19 147.8C281.36 148.37 280.47 148.82 279.45 149.08C278.36 149.4 276.77 149.53 274.6 149.53H269.81ZM299.3 143.92H289.79C289.85 145.07 290.17 145.96 290.81 146.54C291.38 147.18 292.15 147.5 293.17 147.5C294.06 147.5 294.77 147.31 295.34 146.93C295.98 146.61 296.49 145.97 296.94 145.14L299.17 146.42C298.53 147.63 297.7 148.53 296.68 149.1C295.72 149.74 294.57 149.99 293.23 149.99C291.32 149.99 289.78 149.42 288.63 148.27C287.54 147.12 286.97 145.53 286.97 143.61C286.97 141.69 287.54 140.16 288.69 139.01C289.9 137.8 291.37 137.16 293.22 137.16C295.07 137.16 296.6 137.73 297.69 138.82C298.78 139.91 299.29 141.44 299.29 143.42V143.93L299.3 143.92ZM296.49 142.13C296.36 141.24 296.04 140.6 295.53 140.15C294.96 139.7 294.19 139.51 293.3 139.51C292.41 139.51 291.64 139.7 291.13 140.15C290.56 140.6 290.17 141.24 289.98 142.13H296.49ZM310.28 140.98C309.9 140.53 309.39 140.15 308.81 139.96C308.3 139.7 307.66 139.58 307.02 139.58C305.93 139.58 305.04 139.9 304.34 140.67C303.7 141.37 303.32 142.33 303.32 143.54C303.32 144.75 303.7 145.71 304.34 146.41C305.04 147.18 305.94 147.5 307.15 147.5C307.85 147.5 308.43 147.37 308.94 147.12C309.45 146.86 309.9 146.55 310.28 146.03V149.16C309.83 149.42 309.26 149.67 308.68 149.8C308.11 149.93 307.47 149.99 306.83 149.99C304.98 149.99 303.45 149.42 302.3 148.2C301.09 147.05 300.51 145.46 300.51 143.6C300.51 141.74 301.15 140.09 302.36 138.94C303.57 137.73 305.17 137.15 307.15 137.15C307.72 137.15 308.3 137.21 308.87 137.34C309.38 137.47 309.83 137.66 310.27 137.91V140.97L310.28 140.98ZM323.55 149.53H320.81V147.93C320.3 148.63 319.79 149.14 319.09 149.46C318.45 149.84 317.75 149.97 316.86 149.97C315.2 149.97 313.86 149.4 312.9 148.25C311.94 147.1 311.43 145.51 311.43 143.53C311.43 141.55 311.94 140.08 312.9 138.93C313.92 137.72 315.2 137.14 316.79 137.14C317.75 137.14 318.64 137.33 319.28 137.78C319.98 138.16 320.49 138.74 320.81 139.5V137.59H323.55V149.53ZM320.87 143.53C320.87 142.25 320.61 141.3 320.04 140.59C319.47 139.95 318.64 139.57 317.61 139.57C316.58 139.57 315.76 139.95 315.18 140.66C314.61 141.36 314.29 142.32 314.29 143.6C314.29 144.88 314.55 145.83 315.12 146.54C315.69 147.24 316.52 147.56 317.55 147.56C318.58 147.56 319.34 147.18 319.98 146.47C320.55 145.7 320.87 144.75 320.87 143.53ZM335.11 143.53C335.11 142.25 334.85 141.3 334.28 140.59C333.64 139.95 332.88 139.57 331.85 139.57C330.82 139.57 330 139.95 329.42 140.66C328.78 141.36 328.53 142.32 328.53 143.6C328.53 144.88 328.79 145.83 329.36 146.54C329.93 147.24 330.76 147.56 331.79 147.56C332.75 147.56 333.58 147.18 334.22 146.47C334.79 145.7 335.11 144.75 335.11 143.53ZM335.04 130H337.78V149.53H335.04V147.93C334.53 148.63 333.95 149.14 333.32 149.46C332.68 149.84 331.92 149.97 331.09 149.97C329.43 149.97 328.09 149.4 327.13 148.25C326.11 147.1 325.66 145.51 325.66 143.53C325.66 141.55 326.17 140.08 327.13 138.93C328.15 137.72 329.43 137.14 331.02 137.14C331.98 137.14 332.81 137.33 333.51 137.78C334.21 138.16 334.72 138.74 335.04 139.5V129.99V130ZM352.21 143.92H342.7C342.76 145.07 343.08 145.96 343.72 146.54C344.29 147.18 345.06 147.5 346.08 147.5C346.97 147.5 347.68 147.31 348.25 146.93C348.89 146.61 349.4 145.97 349.78 145.14L352.08 146.42C351.44 147.63 350.61 148.53 349.59 149.1C348.63 149.74 347.48 149.99 346.14 149.99C344.23 149.99 342.69 149.42 341.54 148.27C340.45 147.12 339.88 145.53 339.88 143.61C339.88 141.69 340.45 140.16 341.6 139.01C342.75 137.8 344.28 137.16 346.13 137.16C347.98 137.16 349.51 137.73 350.6 138.82C351.69 139.91 352.2 141.44 352.2 143.42V143.93L352.21 143.92ZM349.4 142.13C349.27 141.24 348.95 140.6 348.44 140.15C347.87 139.7 347.1 139.51 346.21 139.51C345.32 139.51 344.55 139.7 344.04 140.15C343.47 140.6 343.08 141.24 342.89 142.13H349.4Z" fill="#00A3D3"/>
</g>
<defs>
<clipPath id="clip0_48_1624">
<rect width="352.21" height="155.15" fill="white"/>
</clipPath>
</defs>
</svg>
